<svg width="88" height="88" viewBox="0 0 88 88" fill="none" xmlns="http://www.w3.org/2000/svg">
<g filter="url(#filter0_d_3194_446)">
<path d="M42.0845 28.6094C42.6488 28.2113 43.3229 27.9983 44.0136 28C44.7043 28.0017 45.3774 28.2181 45.9396 28.619C46.5096 29.035 46.9418 29.611 47.1788 30.2766L48.61 34.67C48.9773 35.7712 49.5957 36.772 50.4165 37.5933C51.2372 38.4147 52.2378 39.0341 53.3392 39.4026L57.7931 40.8426C58.4516 41.0808 59.0187 41.5196 59.4144 42.0969C59.8102 42.6743 60.0147 43.3613 59.9992 44.061C59.9836 44.7607 59.7488 45.4379 59.3277 45.9971C58.9067 46.5564 58.3206 46.9695 57.6522 47.1783L53.2496 48.6119C52.1471 48.9785 51.145 49.5963 50.3226 50.4166C49.5001 51.2369 48.8798 52.237 48.5108 53.3381L47.0635 57.7795C46.8305 58.4339 46.3991 58.9993 45.8295 59.3973C45.2599 59.7952 44.5804 60.0059 43.8854 59.9999C43.1905 59.9939 42.5147 59.7716 41.952 59.3639C41.3894 58.9562 40.9679 58.3834 40.7461 57.7251L39.2829 53.2453C38.9155 52.1738 38.3098 51.1995 37.5111 50.3958C36.7125 49.5921 35.7418 48.98 34.6721 48.6055L30.2215 47.1751C29.567 46.9417 29.0015 46.5105 28.6034 45.9413C28.2053 45.372 27.9945 44.6931 28.0001 43.9986C28.0057 43.3042 28.2276 42.6287 28.6348 42.066C29.0421 41.5033 29.6145 41.0813 30.2727 40.8586L34.6721 39.4346C35.7802 39.0671 36.7865 38.4449 37.6102 37.6179C38.4338 36.7909 39.0517 35.7823 39.4142 34.6732L40.8614 30.2222C41.0919 29.5694 41.521 29.0062 42.0845 28.6094Z" fill="#9547A5"/>
<path d="M43.8896 59.5C44.4807 59.5051 45.0586 59.3257 45.543 58.9873C45.9669 58.6911 46.3012 58.286 46.5107 57.8164L46.5928 57.6113L48.0352 53.1836L48.0371 53.1787C48.4309 52.0043 49.0925 50.9374 49.9697 50.0625C50.847 49.1876 51.9159 48.5288 53.0918 48.1377L53.0947 48.1367L57.4971 46.7031L57.5029 46.7012C58.0715 46.5236 58.5706 46.1719 58.9287 45.6963C59.2867 45.2207 59.4858 44.6447 59.499 44.0498C59.5122 43.4549 59.3385 42.8709 59.002 42.3799C58.6664 41.8904 58.1858 41.5185 57.6279 41.3154L53.1855 39.8779L53.1807 39.877C52.0058 39.4838 50.938 38.8225 50.0625 37.9463C49.1872 37.0702 48.5275 36.0027 48.1357 34.8281L48.1348 34.8252L46.7031 30.4346C46.5001 29.8705 46.1338 29.3813 45.6494 29.0264C45.1717 28.6857 44.5997 28.5015 44.0127 28.5C43.4258 28.4985 42.8525 28.6793 42.373 29.0176L42.3721 29.0186C41.9529 29.3138 41.6215 29.7171 41.4141 30.1846L41.333 30.3887L39.8896 34.8281L39.7314 35.2676C39.3341 36.2782 38.7336 37.1987 37.9648 37.9707C37.086 38.8531 36.0114 39.5171 34.8291 39.9092L34.8262 39.9102L30.4316 41.333C29.8724 41.5226 29.3861 41.8812 29.04 42.3594C28.6937 42.8379 28.5048 43.4124 28.5 44.0029C28.4953 44.5932 28.6744 45.1704 29.0127 45.6543C29.3512 46.1383 29.8321 46.5065 30.3887 46.7051L34.8252 48.1299V48.1289L34.8369 48.1338C35.9779 48.5333 37.0143 49.1856 37.8662 50.043C38.6116 50.793 39.1988 51.6829 39.5967 52.6592L39.7559 53.083L39.7578 53.0898L41.2217 57.5703L41.2207 57.5713C41.4097 58.1286 41.7683 58.6134 42.2451 58.959C42.7236 59.3057 43.2986 59.4949 43.8896 59.5Z" stroke="black"/>
</g>
<defs>
<filter id="filter0_d_3194_446" x="0" y="0" width="88" height="88" filterUnits="userSpaceOnUse" color-interpolation-filters="sRGB">
<feFlood flood-opacity="0" result="BackgroundImageFix"/>
<feColorMatrix in="SourceAlpha" type="matrix" values="0 0 0 0 0 0 0 0 0 0 0 0 0 0 0 0 0 0 127 0" result="hardAlpha"/>
<feOffset/>
<feGaussianBlur stdDeviation="14"/>
<feComposite in2="hardAlpha" operator="out"/>
<feColorMatrix type="matrix" values="0 0 0 0 0.560784 0 0 0 0 0.231373 0 0 0 0 0.619608 0 0 0 0.5 0"/>
<feBlend mode="normal" in2="BackgroundImageFix" result="effect1_dropShadow_3194_446"/>
<feBlend mode="normal" in="SourceGraphic" in2="effect1_dropShadow_3194_446" result="shape"/>
</filter>
</defs>
</svg>
